<svg xmlns="http://www.w3.org/2000/svg" xmlns:xlink="http://www.w3.org/1999/xlink" version="1.1" x="0px" y="0px" viewBox="0 0 50 62.5" style="enable-background:new 0 0 50 50;" xml:space="preserve"><path d="M25,46.9111328c-11.6699219,0-21.1640625-9.4941406-21.1640625-21.1640625S13.3300781,4.5830078,25,4.5830078  s21.1640625,9.4941406,21.1640625,21.1640625S36.6699219,46.9111328,25,46.9111328z M25,5.3330078  c-11.2563477,0-20.4140625,9.1572266-20.4140625,20.4140625S13.7436523,46.1611328,25,46.1611328  s20.4140625-9.1572266,20.4140625-20.4140625S36.2563477,5.3330078,25,5.3330078z M33.2426758,14.5185547h-0.75v22.4580078h0.75  V14.5185547z M28.6855469,25.7470703L17.3974609,14.4589844l-0.5302734,0.53125L27.625,25.7470703L16.8671875,36.5048828  l0.5302734,0.53125L28.6855469,25.7470703z"/><text x="0" y="65" fill="#000000" font-size="5px" font-weight="bold" font-family="'Helvetica Neue', Helvetica, Arial-Unicode, Arial, Sans-serif">Created by ATOM</text><text x="0" y="70" fill="#000000" font-size="5px" font-weight="bold" font-family="'Helvetica Neue', Helvetica, Arial-Unicode, Arial, Sans-serif">from the Noun Project</text></svg>